# xmcd
#
# Track frame offsets:
#	150
#	17905
#	37307
#	73107
#
# Disc length: 1320 seconds
#
# Revision: 1
# Processed by: cddbd v1.5.1PL2 Copyright (c) Steve Scherf et al.
# Submitted via: audiograbber 1.83.01
#
DISCID=37052604
DTITLE=DUKE - SO IN LOVE WITH YOU [CDS)
DYEAR=1996
DGENRE=Dance
TTITLE0=SO IN LOVE WITH YOU (RADIO VIBE MIX)
TTITLE1=SO IN LOVE WITH YOU (PIZZAMAN RADIO EDIT)
TTITLE2=SO IN LOVE WITH YOU (SIL REMIX)
TTITLE3=SO IN LOVE WITH YOU (IBIZA REMIX)
EXTD=
EXTT0=
EXTT1=
EXTT2=
EXTT3=
PLAYORDER=
